<svg xmlns="http://www.w3.org/2000/svg" version="1.1" xmlns:xlink="http://www.w3.org/1999/xlink" xmlns:svgjs="http://svgjs.dev/svgjs" width="2000" height="1500" viewBox="0 0 2000 1500"><rect width="2000" height="1500" fill="#61777f"></rect><g transform="matrix(0.75,0,0,0.75,249.090909090909,490.30999851234424)"><svg viewBox="0 0 396 137" data-background-color="#61777f" preserveAspectRatio="xMidYMid meet" height="691" width="2000" xmlns="http://www.w3.org/2000/svg" xmlns:xlink="http://www.w3.org/1999/xlink"><g id="tight-bounds" transform="matrix(1,0,0,1,0.2400000000000091,0.14935881101561677)"><svg viewBox="0 0 395.52 136.70128237796877" height="136.70128237796877" width="395.52"><g><svg viewBox="0 0 620.5830502965363 214.48851839999998" height="136.70128237796877" width="395.52"><g transform="matrix(1,0,0,1,225.06305029653626,58.50786695494523)"><svg viewBox="0 0 395.52 97.47278449010952" height="97.47278449010952" width="395.52"><g id="textblocktransform"><svg viewBox="0 0 395.52 97.47278449010952" height="97.47278449010952" width="395.52" id="textblock"><g><svg viewBox="0 0 395.52 44.79291370802744" height="44.79291370802744" width="395.52"><g transform="matrix(1,0,0,1,0,0)"><svg width="395.52" viewBox="2.3 -37.1 415.40999999999997 47.05" height="44.79291370802744" data-palette-color="#ffffff"><path d="M15.85 0.25Q11.95 0.25 8.88-1.45 5.8-3.15 4.05-6.23 2.3-9.3 2.3-13.15L2.3-13.15Q2.3-17 4.05-20.05 5.8-23.1 8.88-24.8 11.95-26.5 15.85-26.5L15.85-26.5Q19.25-26.5 21.93-25.18 24.6-23.85 26.15-21.3L26.15-21.3 23.5-19.5Q22.2-21.45 20.2-22.43 18.2-23.4 15.85-23.4L15.85-23.4Q13-23.4 10.73-22.13 8.45-20.85 7.18-18.5 5.9-16.15 5.9-13.15L5.9-13.15Q5.9-10.1 7.18-7.78 8.45-5.45 10.73-4.17 13-2.9 15.85-2.9L15.85-2.9Q18.2-2.9 20.2-3.85 22.2-4.8 23.5-6.75L23.5-6.75 26.15-4.95Q24.6-2.4 21.9-1.07 19.2 0.25 15.85 0.25L15.85 0.25ZM43.4 0.25Q39.6 0.25 36.55-1.48 33.5-3.2 31.75-6.25 30-9.3 30-13.15L30-13.15Q30-17 31.75-20.05 33.5-23.1 36.55-24.8 39.6-26.5 43.4-26.5L43.4-26.5Q47.2-26.5 50.25-24.8 53.3-23.1 55.02-20.05 56.75-17 56.75-13.15L56.75-13.15Q56.75-9.3 55.02-6.25 53.3-3.2 50.25-1.48 47.2 0.25 43.4 0.25L43.4 0.25ZM43.4-2.9Q46.2-2.9 48.42-4.17 50.65-5.45 51.9-7.8 53.15-10.15 53.15-13.15L53.15-13.15Q53.15-16.15 51.9-18.5 50.65-20.85 48.42-22.13 46.2-23.4 43.4-23.4L43.4-23.4Q40.6-23.4 38.37-22.13 36.15-20.85 34.87-18.5 33.6-16.15 33.6-13.15L33.6-13.15Q33.6-10.15 34.87-7.8 36.15-5.45 38.37-4.17 40.6-2.9 43.4-2.9L43.4-2.9ZM84.45-37.1L88-37.1 88 0 84.59 0 84.59-5.2Q83-2.55 80.37-1.15 77.75 0.25 74.45 0.25L74.45 0.25Q70.75 0.25 67.75-1.45 64.75-3.15 63.05-6.2 61.34-9.25 61.34-13.15L61.34-13.15Q61.34-17.05 63.05-20.1 64.75-23.15 67.75-24.83 70.75-26.5 74.45-26.5L74.45-26.5Q77.65-26.5 80.22-25.18 82.8-23.85 84.45-21.3L84.45-21.3 84.45-37.1ZM74.75-2.9Q77.5-2.9 79.72-4.17 81.95-5.45 83.22-7.8 84.5-10.15 84.5-13.15L84.5-13.15Q84.5-16.15 83.22-18.5 81.95-20.85 79.72-22.13 77.5-23.4 74.75-23.4L74.75-23.4Q71.95-23.4 69.72-22.13 67.5-20.85 66.22-18.5 64.95-16.15 64.95-13.15L64.95-13.15Q64.95-10.15 66.22-7.8 67.5-5.45 69.72-4.17 71.95-2.9 74.75-2.9L74.75-2.9ZM97.89 0L97.89-26.3 101.44-26.3 101.44 0 97.89 0ZM99.69-32.05Q98.59-32.05 97.84-32.8 97.09-33.55 97.09-34.6L97.09-34.6Q97.09-35.6 97.84-36.35 98.59-37.1 99.69-37.1L99.69-37.1Q100.79-37.1 101.54-36.38 102.29-35.65 102.29-34.65L102.29-34.65Q102.29-33.55 101.54-32.8 100.79-32.05 99.69-32.05L99.69-32.05ZM124.74-26.5Q129.69-26.5 132.62-23.63 135.54-20.75 135.54-15.25L135.54-15.25 135.54 0 131.99 0 131.99-14.9Q131.99-19 129.94-21.15 127.89-23.3 124.09-23.3L124.09-23.3Q119.84-23.3 117.37-20.78 114.89-18.25 114.89-13.8L114.89-13.8 114.89 0 111.34 0 111.34-26.3 114.74-26.3 114.74-21.45Q116.19-23.85 118.77-25.18 121.34-26.5 124.74-26.5L124.74-26.5ZM166.24-26.3L169.64-26.3 169.64-3.2Q169.64 3.5 166.36 6.73 163.09 9.95 156.49 9.95L156.49 9.95Q152.84 9.95 149.56 8.88 146.29 7.8 144.24 5.9L144.24 5.9 146.04 3.2Q147.94 4.9 150.66 5.85 153.39 6.8 156.39 6.8L156.39 6.8Q161.39 6.8 163.74 4.48 166.09 2.15 166.09-2.75L166.09-2.75 166.09-6.1Q164.44-3.6 161.76-2.3 159.09-1 155.84-1L155.84-1Q152.14-1 149.11-2.63 146.09-4.25 144.36-7.18 142.64-10.1 142.64-13.8L142.64-13.8Q142.64-17.5 144.36-20.4 146.09-23.3 149.09-24.9 152.09-26.5 155.84-26.5L155.84-26.5Q159.19-26.5 161.89-25.15 164.59-23.8 166.24-21.25L166.24-21.25 166.24-26.3ZM156.19-4.15Q159.04-4.15 161.34-5.38 163.64-6.6 164.91-8.8 166.19-11 166.19-13.8L166.19-13.8Q166.19-16.6 164.91-18.78 163.64-20.95 161.36-22.18 159.09-23.4 156.19-23.4L156.19-23.4Q153.34-23.4 151.06-22.2 148.79-21 147.51-18.8 146.24-16.6 146.24-13.8L146.24-13.8Q146.24-11 147.51-8.8 148.79-6.6 151.06-5.38 153.34-4.15 156.19-4.15L156.19-4.15ZM228.03-26.3L231.28-26.3 221.33 0 217.98 0 209.68-21.55 201.38 0 198.03 0 188.13-26.3 191.53-26.3 199.78-3.95 208.23-26.3 211.28-26.3 219.68-3.95 228.03-26.3ZM236.63 0L236.63-26.3 240.18-26.3 240.18 0 236.63 0ZM238.43-32.05Q237.33-32.05 236.58-32.8 235.83-33.55 235.83-34.6L235.83-34.6Q235.83-35.6 236.58-36.35 237.33-37.1 238.43-37.1L238.43-37.1Q239.53-37.1 240.28-36.38 241.03-35.65 241.03-34.65L241.03-34.65Q241.03-33.55 240.28-32.8 239.53-32.05 238.43-32.05L238.43-32.05ZM262.68-4.15L263.93-1.6Q262.93-0.7 261.45-0.23 259.98 0.25 258.38 0.25L258.38 0.25Q254.68 0.25 252.68-1.75 250.68-3.75 250.68-7.4L250.68-7.4 250.68-23.3 245.98-23.3 245.98-26.3 250.68-26.3 250.68-32.05 254.23-32.05 254.23-26.3 262.23-26.3 262.23-23.3 254.23-23.3 254.23-7.6Q254.23-5.25 255.4-4.03 256.58-2.8 258.78-2.8L258.78-2.8Q259.88-2.8 260.9-3.15 261.93-3.5 262.68-4.15L262.68-4.15ZM283.78-26.5Q288.73-26.5 291.65-23.63 294.57-20.75 294.57-15.25L294.57-15.25 294.57 0 291.03 0 291.03-14.9Q291.03-19 288.98-21.15 286.93-23.3 283.13-23.3L283.13-23.3Q278.88-23.3 276.4-20.78 273.93-18.25 273.93-13.8L273.93-13.8 273.93 0 270.38 0 270.38-37.1 273.93-37.1 273.93-21.7Q275.38-24 277.93-25.25 280.48-26.5 283.78-26.5L283.78-26.5ZM330.72-26.5Q335.67-26.5 338.6-23.63 341.52-20.75 341.52-15.25L341.52-15.25 341.52 0 337.97 0 337.97-14.9Q337.97-19 335.92-21.15 333.87-23.3 330.07-23.3L330.07-23.3Q325.82-23.3 323.35-20.78 320.87-18.25 320.87-13.8L320.87-13.8 320.87 0 317.32 0 317.32-26.3 320.72-26.3 320.72-21.45Q322.17-23.85 324.75-25.18 327.32-26.5 330.72-26.5L330.72-26.5ZM351.17 0L351.17-26.3 354.72-26.3 354.72 0 351.17 0ZM352.97-32.05Q351.87-32.05 351.12-32.8 350.37-33.55 350.37-34.6L350.37-34.6Q350.37-35.6 351.12-36.35 351.87-37.1 352.97-37.1L352.97-37.1Q354.07-37.1 354.82-36.38 355.57-35.65 355.57-34.65L355.57-34.65Q355.57-33.55 354.82-32.8 354.07-32.05 352.97-32.05L352.97-32.05ZM384.97 0L374.37-13.2 368.17-7.5 368.17 0 364.62 0 364.62-37.1 368.17-37.1 368.17-11.95 383.87-26.3 388.27-26.3 377.02-15.55 389.32 0 384.97 0ZM404.36 0.25Q400.56 0.25 397.51-1.48 394.46-3.2 392.71-6.25 390.96-9.3 390.96-13.15L390.96-13.15Q390.96-17 392.71-20.05 394.46-23.1 397.51-24.8 400.56-26.5 404.36-26.5L404.36-26.5Q408.16-26.5 411.21-24.8 414.26-23.1 415.99-20.05 417.71-17 417.71-13.15L417.71-13.15Q417.71-9.3 415.99-6.25 414.26-3.2 411.21-1.48 408.16 0.25 404.36 0.25L404.36 0.25ZM404.36-2.9Q407.16-2.9 409.39-4.17 411.61-5.45 412.86-7.8 414.11-10.15 414.11-13.15L414.11-13.15Q414.11-16.15 412.86-18.5 411.61-20.85 409.39-22.13 407.16-23.4 404.36-23.4L404.36-23.4Q401.56-23.4 399.34-22.13 397.11-20.85 395.84-18.5 394.56-16.15 394.56-13.15L394.56-13.15Q394.56-10.15 395.84-7.8 397.11-5.45 399.34-4.17 401.56-2.9 404.36-2.9L404.36-2.9Z" opacity="1" transform="matrix(1,0,0,1,0,0)" fill="#ffffff" class="wordmark-text-0" data-fill-palette-color="primary" id="text-0"></path></svg></g></svg></g><g transform="matrix(1,0,0,1,0,55.36744560456373)"><svg viewBox="0 0 177.84412291374682 42.10533888554579" height="42.10533888554579" width="177.84412291374682"><g transform="matrix(1,0,0,1,0,0)"><svg width="177.84412291374682" viewBox="1.6 -37.5 209.48000000000002 49.6" height="42.10533888554579" data-palette-color="#ffffff"><path d="M12.75 0.5L12.75 0.5Q9.63 0.5 7.1-1.2 4.58-2.9 3.09-5.78 1.6-8.65 1.6-12.2L1.6-12.2Q1.6-15.58 2.96-18.5 4.33-21.43 6.83-23.21 9.33-25 12.75-25L12.75-25Q15.2-25 17.49-23.94 19.78-22.88 21.2-20.4L21.2-20.4 20.25-19.75 20.25-37.5 24.75-37.5 24.75 0 20.75 0 19.9-5.2 21.05-4.4Q19.98-1.98 17.68-0.74 15.38 0.5 12.75 0.5ZM13.55-3.5L13.55-3.5Q15.25-3.5 16.91-4.38 18.57-5.25 19.66-7.16 20.75-9.08 20.75-12.2L20.75-12.2Q20.75-15.1 19.66-17.06 18.57-19.03 16.91-20.01 15.25-21 13.55-21L13.55-21Q11.25-21 9.6-19.85 7.95-18.7 7.08-16.71 6.2-14.73 6.2-12.2L6.2-12.2Q6.2-9.83 7.08-7.85 7.95-5.88 9.6-4.69 11.25-3.5 13.55-3.5ZM42.55 0.5L42.55 0.5Q38.22 0.5 35.27-1.28 32.32-3.05 30.81-5.99 29.3-8.93 29.3-12.45L29.3-12.45Q29.3-15.88 30.71-18.73 32.12-21.58 34.81-23.29 37.5-25 41.3-25L41.3-25Q44.35-25 46.73-23.79 49.12-22.58 50.48-20.26 51.85-17.95 51.85-14.65L51.85-14.65Q51.85-14.13 51.81-13.51 51.77-12.9 51.65-12.25L51.65-12.25 33.9-12.25Q34.22-8.85 35.52-6.95 36.82-5.05 38.8-4.28 40.77-3.5 43.1-3.5L43.1-3.5Q44.8-3.5 46.65-3.85 48.5-4.2 50.15-4.95L50.15-4.95 50.75-1.4Q49.32-0.78 47.27-0.14 45.22 0.5 42.55 0.5ZM34.3-15.35L34.3-15.35 47.2-15.35Q47.2-17.07 46.55-18.35 45.9-19.63 44.57-20.31 43.25-21 41.2-21L41.2-21Q38.2-21 36.59-19.51 34.97-18.03 34.3-15.35ZM68 0L62.94 0 53.59-24.5 58.59-24.5 65.44-4.95 72.25-24.5 77.3-24.5 68 0ZM92.09 0.5L92.09 0.5Q87.77 0.5 84.82-1.28 81.87-3.05 80.36-5.99 78.84-8.93 78.84-12.45L78.84-12.45Q78.84-15.88 80.26-18.73 81.67-21.58 84.36-23.29 87.04-25 90.84-25L90.84-25Q93.89-25 96.28-23.79 98.67-22.58 100.03-20.26 101.39-17.95 101.39-14.65L101.39-14.65Q101.39-14.13 101.36-13.51 101.32-12.9 101.19-12.25L101.19-12.25 83.44-12.25Q83.77-8.85 85.07-6.95 86.37-5.05 88.34-4.28 90.32-3.5 92.64-3.5L92.64-3.5Q94.34-3.5 96.19-3.85 98.04-4.2 99.69-4.95L99.69-4.95 100.29-1.4Q98.87-0.78 96.82-0.14 94.77 0.5 92.09 0.5ZM83.84-15.35L83.84-15.35 96.74-15.35Q96.74-17.07 96.09-18.35 95.44-19.63 94.12-20.31 92.79-21 90.74-21L90.74-21Q87.74-21 86.13-19.51 84.52-18.03 83.84-15.35ZM113.69 0.5L112.24 0.5Q109.87 0.5 108.48-0.36 107.09-1.23 106.49-2.58 105.89-3.93 105.89-5.4L105.89-5.4 105.89-37.5 110.39-37.5 110.39-8Q110.39-5.9 110.67-4.85 110.94-3.8 111.78-3.45 112.62-3.1 114.34-3.1L114.34-3.1 113.69 0.5ZM128.19 0.5L128.19 0.5Q124.34 0.5 121.63-1.21 118.91-2.93 117.48-5.81 116.04-8.7 116.04-12.25L116.04-12.25Q116.04-15.8 117.48-18.69 118.91-21.58 121.63-23.29 124.34-25 128.19-25L128.19-25Q132.01-25 134.74-23.29 137.46-21.58 138.9-18.69 140.34-15.8 140.34-12.25L140.34-12.25Q140.34-8.7 138.9-5.81 137.46-2.93 134.74-1.21 132.01 0.5 128.19 0.5ZM128.19-3.5L128.19-3.5Q131.84-3.5 133.79-5.81 135.74-8.13 135.74-12.25L135.74-12.25Q135.74-16.38 133.79-18.69 131.84-21 128.19-21L128.19-21Q124.56-21 122.6-18.69 120.64-16.38 120.64-12.25L120.64-12.25Q120.64-8.13 122.6-5.81 124.56-3.5 128.19-3.5ZM149.49 12.1L144.99 12.1 144.99-24.5 148.49-24.5 149.28-18.9 148.03-19.8Q149.59-22.2 151.86-23.6 154.13-25 157.44-25L157.44-25Q160.78-25 163.19-23.3 165.59-21.6 166.86-18.71 168.13-15.83 168.13-12.25L168.13-12.25Q168.13-8.68 166.94-5.79 165.74-2.9 163.36-1.2 160.99 0.5 157.44 0.5L157.44 0.5Q154.51 0.5 152.15-0.71 149.78-1.93 148.74-4.35L148.74-4.35 149.49-5.25 149.49 12.1ZM156.59-3.5L156.59-3.5Q159.86-3.5 161.7-5.81 163.53-8.13 163.53-12.25L163.53-12.25Q163.53-16.38 161.7-18.69 159.86-21 156.59-21L156.59-21Q154.56-21 152.9-20.04 151.24-19.07 150.24-17.14 149.24-15.2 149.24-12.25L149.24-12.25Q149.24-9.18 150.24-7.25 151.24-5.33 152.9-4.41 154.56-3.5 156.59-3.5ZM184.58 0.5L184.58 0.5Q180.26 0.5 177.31-1.28 174.36-3.05 172.84-5.99 171.33-8.93 171.33-12.45L171.33-12.45Q171.33-15.88 172.75-18.73 174.16-21.58 176.84-23.29 179.53-25 183.33-25L183.33-25Q186.38-25 188.77-23.79 191.16-22.58 192.52-20.26 193.88-17.95 193.88-14.65L193.88-14.65Q193.88-14.13 193.84-13.51 193.81-12.9 193.68-12.25L193.68-12.25 175.93-12.25Q176.26-8.85 177.56-6.95 178.86-5.05 180.83-4.28 182.81-3.5 185.13-3.5L185.13-3.5Q186.83-3.5 188.68-3.85 190.53-4.2 192.18-4.95L192.18-4.95 192.78-1.4Q191.36-0.78 189.31-0.14 187.26 0.5 184.58 0.5ZM176.33-15.35L176.33-15.35 189.23-15.35Q189.23-17.07 188.58-18.35 187.93-19.63 186.61-20.31 185.28-21 183.23-21L183.23-21Q180.23-21 178.62-19.51 177.01-18.03 176.33-15.35ZM203.23 0L198.43 0 198.43-24.5 202.13-24.5 202.68-20.45Q204.56-22.78 206.27-23.89 207.98-25 209.93-25L209.93-25Q210.56-25 211.08-24.85L211.08-24.85 210.63-19.9Q210.31-19.98 209.94-20.01 209.58-20.05 209.13-20.05L209.13-20.05Q207.18-20.05 205.54-19.19 203.91-18.32 203.23-17.3L203.23-17.3 203.23 0Z" opacity="1" transform="matrix(1,0,0,1,0,0)" fill="#ffffff" class="slogan-text-1" data-fill-palette-color="secondary" id="text-1"></path></svg></g></svg></g></svg></g></svg></g><g><svg viewBox="0 0 214.48851839999998 214.48851839999998" height="214.48851839999998" width="214.48851839999998"><g><svg></svg></g><g id="icon-0"><svg viewBox="0 0 214.48851839999998 214.48851839999998" height="214.48851839999998" width="214.48851839999998"><g><rect width="195.02567136" height="195.02567136" x="9.731423519999993" y="9.731423519999993" fill="#ffffff" data-fill-palette-color="accent"></rect><rect width="195.02567136" height="195.02567136" x="19.462847039999993" y="-5.329070518200751e-15" fill="#ffffff" opacity="0.5" data-fill-palette-color="accent"></rect></g><g transform="matrix(1,0,0,1,27.80406719999999,57.59735411120058)"><svg viewBox="0 0 158.880384 99.29381017759881" height="99.29381017759881" width="158.880384"><g><svg xmlns="http://www.w3.org/2000/svg" xmlns:xlink="http://www.w3.org/1999/xlink" version="1.1" x="0" y="0" viewBox="0 18.00388507967424 96 59.99611492032576" enable-background="new 0 0 96 96" xml:space="preserve" height="99.29381017759881" width="158.880384" class="icon-z$-0" data-fill-palette-color="background" id="z$-0"><path d="M28.416 76.572c-1.024 0-2.048-0.393-2.832-1.172L1.172 50.844C0.42 50.092 0 49.068 0 48c0-1.068 0.42-2.088 1.176-2.848l24.412-24.548c1.56-1.568 4.092-1.576 5.656 0.004 1.56 1.58 1.56 4.12-0.004 5.696L9.664 48l21.58 21.704c1.56 1.571 1.56 4.116 0 5.688C30.464 76.18 29.432 76.572 28.416 76.572L28.416 76.572z" fill="#61777f" data-fill-palette-color="background"></path><path d="M67.588 76.572c-1.023 0-2.052-0.393-2.828-1.18-1.568-1.572-1.568-4.117 0-5.697L86.344 48 64.76 26.304c-1.568-1.58-1.568-4.12 0-5.696 1.568-1.58 4.088-1.576 5.656-0.008l24.412 24.552C95.58 45.9 96 46.928 96 48c0 1.068-0.42 2.088-1.172 2.844L70.416 75.393C69.641 76.18 68.611 76.572 67.588 76.572L67.588 76.572z" fill="#61777f" data-fill-palette-color="background"></path><path d="M38.348 78c-0.476 0-0.964-0.084-1.436-0.264-2.06-0.805-3.092-3.133-2.296-5.213l19.868-51.947c0.795-2.076 3.107-3.096 5.168-2.304 2.06 0.796 3.088 3.124 2.296 5.204L42.072 75.424C41.476 77.016 39.952 78 38.348 78z" fill="#61777f" data-fill-palette-color="background"></path></svg></g></svg></g></svg></g></svg></g></svg></g><defs></defs></svg><rect width="395.52" height="136.70128237796877" fill="none" stroke="none" visibility="hidden"></rect></g></svg></g></svg>